<svg width="40" height="41" viewBox="0 0 40 41" fill="none" xmlns="http://www.w3.org/2000/svg">
<rect y="0.110901" width="40" height="40" rx="20" fill="#1859B5"/>
<rect x="3" y="3" width="34" height="34" rx="17" fill="#1454AA"/>
<path d="M13.3415 13H11L13.3415 17.9H15.5366L15.0061 16.92H14.128L12.7561 13.98H13.7805L13.3415 13Z" fill="#FFDA5C"/>
<path d="M13.9268 13L17.2927 20H23L26.2195 13H13.9268Z" fill="#FFDA5C"/>
<path d="M18.9024 20.7H21.2439V22.94L22.561 24.9H17.7317L18.9024 22.94V20.7Z" fill="#FFDA5C"/>
<path d="M24.4634 25.6H15.8293V27H24.4634V25.6Z" fill="#FFDA5C"/>
<path d="M29 13H26.6585L26.2195 13.98H27.2439L25.872 16.92H24.9939L24.4634 17.9H26.6585L29 13Z" fill="#FFDA5C"/>
</svg>
