<svg width="19" height="30" viewBox="0 0 19 30" fill="none" xmlns="http://www.w3.org/2000/svg">
<path fill-rule="evenodd" clip-rule="evenodd" d="M10.222 3.35445C10.2342 2.09977 10.247 0.78548 9.14688 0C9.11978 0.247741 9.10237 0.500395 9.08487 0.754328C9.02195 1.66744 8.95789 2.59709 8.43823 3.37426C7.95147 4.41157 7.02032 5.05157 6.10397 5.6814C5.87043 5.84191 5.63786 6.00176 5.41384 6.16736C5.52641 6.24923 5.64519 6.33043 5.76585 6.41292C6.44927 6.88013 7.19304 7.38859 7.21068 8.29333C7.66731 10.1524 6.14029 12.0975 4.34345 12.4C3.74154 11.7032 3.6852 10.7929 3.63776 9.91819C3.05957 10.191 2.65929 10.7158 2.40132 11.2851C1.1382 13.6038 2.18191 16.56 3.98764 18.2797C5.6896 19.697 7.44196 21.0521 9.23583 22.3478C11.6613 20.6399 13.9622 18.7185 15.9221 16.4858C17.3957 14.8313 16.7375 12.3703 15.7768 10.6239C15.2787 11.546 14.7509 12.4652 13.974 13.1798C13.4878 12.7291 13.0044 12.2547 12.6842 11.6646C12.4372 11.1489 12.5006 10.5751 12.5621 10.0183C12.5766 9.88678 12.591 9.75622 12.6012 9.62761C13.3484 9.51494 14.0986 9.40226 14.8547 9.34593C14.8754 7.76258 13.894 6.33637 12.7109 5.36383C12.6437 5.73356 12.5788 6.10329 12.5141 6.47228C12.476 6.6892 12.438 6.90586 12.3996 7.12212C12.0793 7.08654 11.7561 7.05689 11.433 7.0391C10.7866 6.3423 10.1728 5.48836 10.244 4.48616C10.2145 4.12632 10.2182 3.74325 10.222 3.35445ZM3.35598 19.0892C1.68071 18.6711 0.607353 20.4057 -0.000488281 21.6925C1.36313 23.1598 2.90447 24.4381 4.44373 25.7147C4.84237 26.0453 5.24088 26.3758 5.63613 26.7094C5.91437 26.971 6.25893 27.1177 6.60335 27.2644C6.93427 27.4052 7.26505 27.5461 7.53674 27.7887C7.75047 27.9536 7.94752 28.1419 8.14446 28.3302C8.48577 28.6563 8.82673 28.9822 9.25352 29.1853C10.6234 28.8532 11.3736 27.4418 11.6197 26.1401C11.7412 26.5404 11.8658 26.9407 11.9933 27.338C12.9147 27.1071 13.5864 26.4334 14.2484 25.7694C14.496 25.521 14.7423 25.2739 14.9998 25.0519C15.464 24.5557 15.9785 24.1098 16.4927 23.6642C17.2135 23.0396 17.9337 22.4154 18.5135 21.654C18.4377 21.4975 18.3661 21.3345 18.2939 21.1701C17.9735 20.4404 17.6409 19.6829 16.8738 19.3442C16.3015 18.8964 15.5662 18.9053 14.8783 18.9468C14.988 19.2908 15.1066 19.6347 15.2341 19.9757C14.9139 20.3315 14.5788 20.6785 14.1874 20.9601C13.4493 21.4859 12.7394 22.0495 12.0294 22.6133C11.1138 23.3404 10.1979 24.0676 9.22091 24.7139C8.89958 24.4478 8.58397 24.1746 8.2683 23.9013C7.5674 23.2945 6.86624 22.6875 6.10164 22.158C5.95194 22.0447 5.79777 21.9324 5.64235 21.8191C4.65872 21.1023 3.62483 20.3489 3.35598 19.0892Z" fill="#18BBE6"/>
</svg>
