<svg width="166" height="48" viewBox="0 0 166 48" fill="none" xmlns="http://www.w3.org/2000/svg">
<g clip-path="url(#clip0_55_8190)">
<path d="M8.55188 0.0996094C10.2304 0.106192 11.9156 0.0996094 13.6007 0.106192C13.7521 0.422155 13.6929 0.784195 13.706 1.12649C13.6797 2.50882 13.6994 3.89774 13.6797 5.28666C11.9419 5.37224 10.2041 5.25375 8.46631 5.33274C8.5453 3.58836 8.42023 1.8374 8.55188 0.0996094Z" fill="white"/>
<path d="M17.0554 0.0665917C18.7471 0.033679 20.4454 0.033679 22.1371 0.0600092C22.1634 1.54108 22.1042 3.02216 22.1305 4.50982C22.1371 4.76654 22.0976 5.02984 22.0252 5.27998C20.3598 5.20757 18.6944 5.29972 17.0225 5.29972C17.108 3.56193 17.0751 1.81097 17.0554 0.0665917Z" fill="white"/>
<path d="M25.6523 0.0197477C27.3309 0.059243 29.016 0.0394953 30.6946 0C30.7407 1.71805 30.7012 3.44268 30.688 5.16731C29.016 5.2068 27.3441 5.14098 25.6721 5.2068C25.6655 3.48217 25.7313 1.75096 25.6523 0.0197477Z" fill="white"/>
<path d="M0.0663138 0.177444C1.7712 0.144531 3.47608 0.184027 5.18096 0.144531C5.19413 0.230104 5.22704 0.394668 5.2402 0.480242C5.29286 9.33378 5.14146 18.1939 5.14146 27.0474C5.21387 28.2718 5.18754 29.5027 5.38502 30.7205C5.79314 33.4589 7.05699 36.0655 8.9396 38.0996C9.33455 38.6525 9.90724 39.0211 10.3878 39.4819C12.9286 41.641 16.266 42.7732 19.5902 42.8324C22.9012 42.76 26.2451 41.6541 28.7728 39.4753C31.5836 37.1714 33.5123 33.7748 33.9007 30.1478C33.9533 29.246 34.0521 28.3442 34.0389 27.4424C34.1771 22.7227 34.1574 17.9964 34.1837 13.2702C34.21 8.89933 34.1903 4.52851 34.2035 0.164279C35.9149 0.170861 37.6264 0.170861 39.3378 0.144531C39.4563 0.506572 39.4103 0.881778 39.4103 1.25698C39.4497 10.7095 39.2984 20.1621 39.3049 29.6146C39.1338 31.754 38.6598 33.867 37.8699 35.8615C36.56 38.9421 34.4799 41.6805 31.8601 43.7606C27.193 47.4599 20.7816 48.8949 14.9956 47.4336C10.4273 46.3936 6.32632 43.5828 3.60773 39.7715C1.68562 37.0661 0.461267 33.8538 0.118974 30.5428C-0.0719198 29.4303 0.0399836 28.2981 0.000488281 27.1725C0.0268185 22.5384 0.0136534 17.9043 0.0268185 13.2702C0.0926441 8.90592 0.0334011 4.5351 0.0663138 0.177444Z" fill="white"/>
<path d="M19.5962 8.6492C19.9451 8.56362 20.3071 8.63603 20.6626 8.63603C24.0065 8.66236 27.3439 8.63603 30.6878 8.62286C30.747 8.82034 30.7734 9.01782 30.7602 9.22846C30.7141 11.1571 30.7339 13.0858 30.7141 15.0211C29.3252 14.2444 27.9626 13.4084 26.554 12.6646C24.4541 11.3415 22.2292 10.2422 20.0767 9.01124C19.899 8.92566 19.741 8.78743 19.5962 8.6492Z" fill="white"/>
<path d="M8.46528 8.70898C9.74888 8.80772 11.0325 8.68924 12.3095 8.72873C13.0204 8.66291 13.547 9.23559 14.1263 9.55813C19.603 12.8494 25.1389 16.0354 30.6682 19.2411C30.7275 21.4726 30.6156 23.7106 30.6814 25.9421C30.0824 25.7183 29.6084 25.2773 29.0226 25.0271C24.7439 22.4863 20.4126 20.031 16.0615 17.6152C13.8169 16.3579 11.6117 15.048 9.37367 13.7841C9.06429 13.5867 8.64301 13.5274 8.42578 13.2115C8.51135 11.7172 8.48502 10.2164 8.46528 8.70898Z" fill="white"/>
<path d="M8.49166 17.6602C9.14333 17.9498 9.7226 18.3842 10.3414 18.7331C16.5948 22.3404 22.8745 25.9081 29.128 29.5022C29.6283 29.805 30.1812 30.0222 30.6156 30.4106C30.3194 31.76 29.8389 33.0765 29.0951 34.2482C28.8252 34.6629 28.6474 35.15 28.2459 35.4594C23.0457 32.4577 17.8916 29.3705 12.6716 26.3952C11.3551 25.6382 10.0583 24.8615 8.71547 24.1506C8.5904 24.0584 8.34026 23.9992 8.39292 23.7951C8.48508 21.7545 8.46533 19.7007 8.49166 17.6602Z" fill="white"/>
<path d="M8.32715 28.002C13.9092 31.3591 19.5636 34.6043 25.1785 37.9087C24.698 38.4814 23.9541 38.7447 23.2498 38.929C21.9135 39.3964 20.4785 39.5938 19.0699 39.5214C15.8773 39.4293 12.7309 37.8429 10.8022 35.2888C9.66999 33.8802 8.91958 32.1621 8.59045 30.3848C8.46538 29.5949 8.43247 28.7919 8.32715 28.002Z" fill="white"/>
</g>
<path d="M105.279 12.8383H100.47L101.345 8.90381H106.153L105.279 12.8383ZM99.9321 15.5286H104.741L101.042 32.9145H96.2666L99.9321 15.5286Z" fill="#FFDA5C"/>
<path d="M71.8409 15.5284H76.4144L75.8763 17.9833H75.9436C76.661 16.9744 77.5353 16.2346 78.5666 15.7638C79.5979 15.293 80.7525 15.0576 82.0304 15.0576C83.1065 15.0576 84.0256 15.293 84.7879 15.7638C85.5501 16.2346 86.0321 17.0081 86.2339 18.0842C86.5254 17.6358 86.8953 17.2323 87.3436 16.8736C87.792 16.4924 88.274 16.1674 88.7897 15.8983C89.3053 15.6293 89.8434 15.4275 90.4038 15.293C90.9867 15.1361 91.5584 15.0576 92.1189 15.0576C92.7915 15.0576 93.4416 15.1473 94.0693 15.3266C94.7195 15.506 95.2912 15.775 95.7844 16.1337C96.2776 16.4924 96.67 16.952 96.9614 17.5125C97.2528 18.073 97.3986 18.7231 97.3986 19.4629C97.3986 20.001 97.3425 20.5503 97.2304 21.1107C97.1183 21.6488 97.0062 22.1756 96.8941 22.6913L94.7419 32.9143H89.9667L92.2534 21.9178C92.3431 21.4694 92.3879 21.0547 92.3879 20.6736C92.3879 20.1579 92.1861 19.7208 91.7826 19.3621C91.4015 19.0034 90.9083 18.824 90.303 18.824C89.6752 18.824 89.1035 18.9809 88.5879 19.2948C88.0947 19.5863 87.6575 19.9674 87.2764 20.4382C86.9177 20.8866 86.615 21.391 86.3684 21.9515C86.1218 22.5119 85.9425 23.0612 85.8304 23.5992L83.8799 32.9143H79.071L81.3578 21.9178C81.4475 21.4694 81.4923 21.0547 81.4923 20.6736C81.4923 20.1579 81.2905 19.7208 80.887 19.3621C80.5059 19.0034 80.0126 18.824 79.4073 18.824C78.7796 18.824 78.2079 18.9809 77.6923 19.2948C77.1991 19.5863 76.7619 19.9674 76.3808 20.4382C76.0221 20.8866 75.7194 21.391 75.4728 21.9515C75.2262 22.5119 75.0468 23.0612 74.9347 23.5992L72.9843 32.9143H68.2427L71.8409 15.5284Z" fill="#FFDA5C"/>
<path d="M64.9018 15.5286H69.7107L66.0116 32.9145H61.2363L64.9018 15.5286Z" fill="#FFDA5C"/>
<path d="M57.9424 13.3428H50.4097L51.3513 8.90381H71.3938L70.4522 13.3428H63.2557L59.1531 32.9145H53.8398L57.9424 13.3428Z" fill="#FFDA5C"/>
<path d="M154.936 35.431C154.533 36.1708 154.118 36.7761 153.692 37.2469C153.266 37.7401 152.795 38.1212 152.28 38.3903C151.764 38.6593 151.17 38.8386 150.497 38.9283C149.847 39.0404 149.074 39.0965 148.177 39.0965C147.773 39.0965 147.359 39.074 146.933 39.0292C146.507 38.9844 146.081 38.9507 145.655 38.9283L146.462 34.9602C146.776 34.9602 147.101 34.9938 147.437 35.061C147.751 35.1283 148.065 35.1619 148.379 35.1619C148.939 35.1619 149.388 35.0722 149.724 34.8929C150.06 34.736 150.329 34.5342 150.531 34.2876C150.755 34.0634 150.934 33.8168 151.069 33.5478C151.226 33.2787 151.383 33.0433 151.54 32.8416L148.446 15.6238H153.356L154.869 28.0663H154.936L160.956 15.6238H166L154.936 35.431Z" fill="white"/>
<path d="M132.466 20.9035C132.623 19.805 132.959 18.897 133.474 18.1796C133.99 17.4398 134.618 16.8457 135.358 16.3973C136.097 15.9489 136.927 15.6351 137.846 15.4557C138.765 15.254 139.718 15.1531 140.705 15.1531C141.489 15.1531 142.308 15.2091 143.159 15.3212C144.011 15.4333 144.796 15.6575 145.513 15.9938C146.231 16.3077 146.814 16.7672 147.262 17.3726C147.733 17.9554 147.957 18.7401 147.935 19.7265C147.935 20.5561 147.811 21.5313 147.565 22.6522L146.018 29.6469C145.928 29.9608 145.861 30.3531 145.816 30.8239C145.794 31.2723 145.782 31.6647 145.782 32.0009C145.782 32.2924 145.838 32.6287 145.951 33.0098H141.175V31.2947C140.525 32.0346 139.729 32.5838 138.788 32.9425C137.846 33.2788 136.871 33.447 135.862 33.447C134.92 33.447 134.091 33.3237 133.374 33.0771C132.679 32.8304 132.096 32.5054 131.625 32.1018C131.154 31.6759 130.807 31.1939 130.582 30.6558C130.358 30.0953 130.246 29.5124 130.246 28.9071C130.246 27.2257 130.818 25.8806 131.961 24.8717C133.127 23.8629 134.764 23.2351 136.871 22.9885C137.992 22.854 138.967 22.7531 139.797 22.6859C140.626 22.6186 141.31 22.5177 141.848 22.3832C142.408 22.2263 142.823 22.0133 143.092 21.7443C143.361 21.4528 143.496 21.0268 143.496 20.4664C143.496 20.018 143.395 19.6593 143.193 19.3903C142.991 19.1212 142.733 18.9083 142.42 18.7513C142.128 18.5944 141.803 18.4935 141.444 18.4487C141.108 18.3814 140.783 18.3478 140.469 18.3478C139.617 18.3478 138.855 18.5608 138.182 18.9867C137.51 19.3903 137.095 20.0292 136.938 20.9035H132.466ZM142.554 24.6699C141.949 25.0286 141.299 25.2528 140.604 25.3425C139.909 25.4098 139.214 25.4658 138.519 25.5106C138.07 25.5555 137.633 25.634 137.207 25.746C136.781 25.8357 136.4 25.9814 136.064 26.1832C135.75 26.385 135.492 26.6652 135.29 27.0239C135.089 27.3602 134.988 27.7974 134.988 28.3354C134.988 28.9856 135.246 29.4788 135.761 29.8151C136.299 30.129 136.916 30.2859 137.611 30.2859C138.351 30.2859 138.967 30.1738 139.46 29.9496C139.976 29.703 140.402 29.4003 140.738 29.0416C141.097 28.6605 141.377 28.2346 141.579 27.7638C141.781 27.293 141.949 26.8222 142.083 26.3514L142.554 24.6699Z" fill="white"/>
<path d="M128.471 8.99902H133.246L128.135 33.0098H123.393L128.471 8.99902Z" fill="white"/>
<path d="M108.227 8.99902H117.845C119.055 8.99902 120.165 9.12233 121.174 9.36894C122.205 9.59313 123.091 9.97425 123.831 10.5123C124.57 11.0504 125.142 11.7678 125.546 12.6645C125.972 13.5613 126.185 14.671 126.185 15.9937C126.185 17.3165 125.927 18.5047 125.411 19.5584C124.918 20.5896 124.234 21.464 123.36 22.1814C122.508 22.8988 121.521 23.4481 120.401 23.8292C119.28 24.2103 118.091 24.4009 116.836 24.4009H110.312L108.496 33.0098H103.25L108.227 8.99902ZM111.186 20.2982H116.567C117.912 20.2982 118.966 19.9619 119.728 19.2893C120.513 18.5943 120.905 17.5294 120.905 16.0946C120.905 15.4893 120.793 14.9961 120.569 14.615C120.367 14.2114 120.087 13.9088 119.728 13.707C119.369 13.4828 118.966 13.3259 118.517 13.2362C118.091 13.1465 117.643 13.1017 117.172 13.1017H112.666L111.186 20.2982Z" fill="white"/>
<defs>
<clipPath id="clip0_55_8190">
<rect width="39.4098" height="48" fill="white"/>
</clipPath>
</defs>
</svg>
