<svg width="83" height="24" viewBox="0 0 83 24" fill="none" xmlns="http://www.w3.org/2000/svg">
<g clip-path="url(#clip0_969_20785)">
<path d="M4.2757 0.0488281C5.11498 0.0521194 5.95755 0.0488281 6.80012 0.0521194C6.87582 0.210101 6.8462 0.391121 6.85278 0.562268C6.83961 1.25344 6.84949 1.9479 6.83961 2.64236C5.97071 2.68514 5.10181 2.6259 4.23291 2.66539C4.27241 1.79321 4.20987 0.917726 4.2757 0.0488281Z" fill="white"/>
<path d="M8.52769 0.0323193C9.37355 0.0158629 10.2227 0.0158629 11.0686 0.029028C11.0817 0.769566 11.0521 1.5101 11.0653 2.25393C11.0686 2.38229 11.0488 2.51394 11.0126 2.63901C10.1799 2.60281 9.34722 2.64889 8.51123 2.64889C8.55402 1.77999 8.53756 0.904508 8.52769 0.0323193Z" fill="white"/>
<path d="M12.8257 0.00987383C13.665 0.0296215 14.5075 0.0197477 15.3468 0C15.3699 0.859024 15.3501 1.72134 15.3435 2.58365C14.5075 2.6034 13.6715 2.57049 12.8356 2.6034C12.8323 1.74109 12.8652 0.87548 12.8257 0.00987383Z" fill="white"/>
<path d="M0.0329129 0.088722C0.885357 0.0722656 1.7378 0.0920133 2.59025 0.0722656C2.59683 0.115052 2.61329 0.197334 2.61987 0.240121C2.6462 4.66689 2.5705 9.09695 2.5705 13.5237C2.6067 14.1359 2.59354 14.7514 2.69228 15.3603C2.89634 16.7294 3.52826 18.0328 4.46957 19.0498C4.66705 19.3262 4.95339 19.5106 5.19366 19.7409C6.4641 20.8205 8.13278 21.3866 9.79488 21.4162C11.4504 21.38 13.1224 20.8271 14.3862 19.7377C15.7916 18.5857 16.756 16.8874 16.9502 15.0739C16.9765 14.623 17.0259 14.1721 17.0193 13.7212C17.0884 11.3614 17.0785 8.99821 17.0917 6.63507C17.1048 4.44967 17.095 2.26426 17.1016 0.0821395C17.9573 0.0854307 18.813 0.0854307 19.6688 0.0722656C19.728 0.253286 19.705 0.440889 19.705 0.628492C19.7247 5.35477 19.649 10.081 19.6523 14.8073C19.5667 15.877 19.3298 16.9335 18.9348 17.9307C18.2798 19.4711 17.2398 20.8402 15.9299 21.8803C13.5963 23.73 10.3906 24.4475 7.49756 23.7168C5.21341 23.1968 3.16293 21.7914 1.80363 19.8858C0.842571 18.533 0.23039 16.9269 0.0592432 15.2714C-0.0362042 14.7152 0.0197478 14.1491 0 13.5863C0.0131652 11.2692 0.00658258 8.95213 0.0131652 6.63507C0.0460781 4.45296 0.0164565 2.26755 0.0329129 0.088722Z" fill="white"/>
<path d="M9.79785 4.32362C9.97229 4.28083 10.1533 4.31704 10.331 4.31704C12.003 4.3302 13.6717 4.31704 15.3437 4.31046C15.3733 4.40919 15.3865 4.50793 15.3799 4.61325C15.3568 5.5776 15.3667 6.54194 15.3568 7.50958C14.6624 7.12121 13.9811 6.70322 13.2767 6.3313C12.2268 5.66975 11.1144 5.12011 10.0381 4.50464C9.94925 4.46185 9.87026 4.39274 9.79785 4.32362Z" fill="white"/>
<path d="M4.23215 4.35547C4.87395 4.40484 5.51575 4.34559 6.15426 4.36534C6.50972 4.33243 6.77303 4.61877 7.06266 4.78004C9.80102 6.42568 12.569 8.01866 15.3337 9.62151C15.3633 10.7373 15.3073 11.8563 15.3403 12.972C15.0408 12.8601 14.8038 12.6396 14.5109 12.5145C12.3715 11.2441 10.2058 10.0165 8.0303 8.80857C6.90797 8.17993 5.80539 7.52497 4.68635 6.89304C4.53166 6.79431 4.32101 6.76468 4.2124 6.6067C4.25519 5.85958 4.24202 5.10917 4.23215 4.35547Z" fill="white"/>
<path d="M4.24583 8.83008C4.57167 8.97489 4.8613 9.19212 5.17068 9.36656C8.29741 11.1702 11.4373 12.954 14.564 14.7511C14.8142 14.9025 15.0906 15.0111 15.3079 15.2053C15.1598 15.88 14.9195 16.5383 14.5476 17.1241C14.4126 17.3314 14.3238 17.575 14.123 17.7297C11.5229 16.2289 8.94579 14.6853 6.3358 13.1976C5.67754 12.8191 5.02916 12.4307 4.35773 12.0753C4.2952 12.0292 4.17013 11.9996 4.19646 11.8975C4.24254 10.8773 4.23267 9.85037 4.24583 8.83008Z" fill="white"/>
<path d="M4.16357 14C6.95459 15.6786 9.78181 17.3012 12.5893 18.9534C12.349 19.2397 11.9771 19.3714 11.6249 19.4635C10.9568 19.6972 10.2393 19.7959 9.53496 19.7597C7.93869 19.7137 6.36545 18.9205 5.4011 17.6434C4.835 16.9391 4.45979 16.0801 4.29523 15.1914C4.23269 14.7965 4.21623 14.395 4.16357 14Z" fill="white"/>
</g>
<path d="M52.6395 6.41893H50.2351L50.6723 4.45166H53.0767L52.6395 6.41893ZM49.9661 7.76406H52.3705L50.5209 16.457H48.1333L49.9661 7.76406Z" fill="white"/>
<path d="M35.9207 7.76421H38.2075L37.9384 8.99165H37.9721C38.3308 8.48722 38.7679 8.11731 39.2836 7.88191C39.7992 7.64651 40.3765 7.52881 41.0154 7.52881C41.5535 7.52881 42.0131 7.64651 42.3942 7.88191C42.7753 8.11731 43.0164 8.50403 43.1172 9.04209C43.263 8.8179 43.4479 8.61613 43.6721 8.43678C43.8963 8.24622 44.1373 8.08368 44.3951 7.94916C44.6529 7.81465 44.922 7.71377 45.2022 7.64651C45.4937 7.56804 45.7795 7.52881 46.0597 7.52881C46.396 7.52881 46.7211 7.57365 47.035 7.66332C47.36 7.753 47.6459 7.88751 47.8925 8.06686C48.1391 8.24622 48.3353 8.47601 48.481 8.75625C48.6267 9.03649 48.6996 9.36156 48.6996 9.73147C48.6996 10.0005 48.6716 10.2751 48.6155 10.5554C48.5595 10.8244 48.5034 11.0878 48.4474 11.3456L47.3713 16.4572H44.9836L46.127 10.9589C46.1718 10.7347 46.1943 10.5273 46.1943 10.3368C46.1943 10.079 46.0934 9.86038 45.8916 9.68103C45.701 9.50168 45.4544 9.412 45.1518 9.412C44.8379 9.412 44.5521 9.49047 44.2942 9.6474C44.0476 9.79313 43.829 9.98369 43.6385 10.2191C43.4591 10.4433 43.3078 10.6955 43.1845 10.9757C43.0612 11.256 42.9715 11.5306 42.9155 11.7996L41.9402 16.4572H39.5358L40.6792 10.9589C40.724 10.7347 40.7464 10.5273 40.7464 10.3368C40.7464 10.079 40.6455 9.86038 40.4438 9.68103C40.2532 9.50168 40.0066 9.412 39.7039 9.412C39.3901 9.412 39.1042 9.49047 38.8464 9.6474C38.5998 9.79313 38.3812 9.98369 38.1906 10.2191C38.0113 10.4433 37.86 10.6955 37.7367 10.9757C37.6134 11.256 37.5237 11.5306 37.4676 11.7996L36.4924 16.4572H34.1216L35.9207 7.76421Z" fill="white"/>
<path d="M32.4514 7.76416H34.8559L33.0063 16.4571H30.6187L32.4514 7.76416Z" fill="white"/>
<path d="M28.9715 6.67114H25.2051L25.6759 4.45166H35.6972L35.2264 6.67114H31.6281L29.5768 16.457H26.9201L28.9715 6.67114Z" fill="white"/>
<path d="M77.4679 17.7156C77.2661 18.0855 77.0588 18.3882 76.8458 18.6236C76.6328 18.8702 76.3974 19.0607 76.1396 19.1953C75.8817 19.3298 75.5847 19.4194 75.2484 19.4643C74.9233 19.5203 74.5366 19.5483 74.0882 19.5483C73.8865 19.5483 73.6791 19.5371 73.4661 19.5147C73.2531 19.4923 73.0401 19.4755 72.8271 19.4643L73.2307 17.4802C73.3876 17.4802 73.5502 17.497 73.7183 17.5306C73.8752 17.5643 74.0322 17.5811 74.1891 17.5811C74.4693 17.5811 74.6935 17.5362 74.8617 17.4466C75.0298 17.3681 75.1643 17.2672 75.2652 17.1439C75.3773 17.0318 75.467 16.9085 75.5343 16.774C75.6127 16.6395 75.6912 16.5218 75.7697 16.4209L74.2227 7.81201H76.6776L77.4343 14.0333H77.4679L80.4777 7.81201H82.9998L77.4679 17.7156Z" fill="white"/>
<path d="M66.2328 10.4519C66.3113 9.90263 66.4794 9.44865 66.7372 9.08994C66.995 8.72003 67.3089 8.42298 67.6788 8.19879C68.0487 7.9746 68.4635 7.81766 68.9231 7.72799C69.3827 7.6271 69.8591 7.57666 70.3523 7.57666C70.7446 7.57666 71.1538 7.60468 71.5797 7.66073C72.0057 7.71678 72.398 7.82887 72.7567 7.99702C73.1154 8.15395 73.4069 8.38374 73.6311 8.6864C73.8665 8.97785 73.9786 9.37018 73.9674 9.8634C73.9674 10.2781 73.9057 10.7658 73.7824 11.3262L73.009 14.8236C72.9641 14.9805 72.9305 15.1767 72.9081 15.4121C72.8969 15.6363 72.8913 15.8325 72.8913 16.0006C72.8913 16.1463 72.9193 16.3145 72.9753 16.505H70.5877V15.6475C70.2626 16.0174 69.8647 16.292 69.3939 16.4714C68.9231 16.6395 68.4355 16.7236 67.931 16.7236C67.4602 16.7236 67.0455 16.662 66.6868 16.5386C66.3393 16.4153 66.0478 16.2528 65.8124 16.051C65.577 15.8381 65.4033 15.5971 65.2912 15.328C65.1791 15.0478 65.123 14.7563 65.123 14.4537C65.123 13.613 65.4089 12.9404 65.9806 12.436C66.5635 11.9315 67.3818 11.6177 68.4355 11.4944C68.9959 11.4271 69.4836 11.3767 69.8983 11.343C70.3131 11.3094 70.655 11.259 70.924 11.1917C71.2042 11.1133 71.4116 11.0068 71.5461 10.8723C71.6806 10.7265 71.7479 10.5135 71.7479 10.2333C71.7479 10.0091 71.6974 9.82977 71.5966 9.69525C71.4957 9.56074 71.3668 9.45425 71.2098 9.37578C71.0641 9.29732 70.9016 9.24687 70.7222 9.22446C70.5541 9.19083 70.3915 9.17401 70.2346 9.17401C69.8086 9.17401 69.4275 9.2805 69.0912 9.49348C68.7549 9.69525 68.5476 10.0147 68.4691 10.4519H66.2328ZM71.2771 12.3351C70.9744 12.5144 70.6493 12.6265 70.3019 12.6714C69.9544 12.705 69.6069 12.733 69.2594 12.7554C69.0352 12.7779 68.8166 12.8171 68.6036 12.8731C68.3906 12.918 68.2001 12.9908 68.0319 13.0917C67.875 13.1926 67.7461 13.3327 67.6452 13.5121C67.5443 13.6802 67.4939 13.8988 67.4939 14.1678C67.4939 14.4929 67.6228 14.7395 67.8806 14.9077C68.1496 15.0646 68.4579 15.1431 68.8054 15.1431C69.1753 15.1431 69.4836 15.087 69.7302 14.9749C69.988 14.8516 70.201 14.7003 70.3691 14.5209C70.5485 14.3304 70.6886 14.1174 70.7895 13.882C70.8904 13.6466 70.9744 13.4112 71.0417 13.1758L71.2771 12.3351Z" fill="white"/>
<path d="M64.2352 4.49951H66.6229L64.0671 16.5049H61.6963L64.2352 4.49951Z" fill="white"/>
<path d="M54.1135 4.49951H58.9224C59.5277 4.49951 60.0826 4.56116 60.587 4.68447C61.1027 4.79656 61.5454 4.98712 61.9154 5.25615C62.2853 5.52518 62.5711 5.88388 62.7729 6.33226C62.9859 6.78064 63.0924 7.33551 63.0924 7.99687C63.0924 8.65823 62.9634 9.25234 62.7056 9.77918C62.459 10.2948 62.1171 10.732 61.68 11.0907C61.254 11.4494 60.7608 11.724 60.2003 11.9146C59.6398 12.1052 59.0457 12.2004 58.418 12.2004H55.156L54.248 16.5049H51.625L54.1135 4.49951ZM55.5932 10.1491H58.2835C58.956 10.1491 59.4829 9.98095 59.864 9.64467C60.2563 9.29717 60.4525 8.76472 60.4525 8.04732C60.4525 7.74466 60.3965 7.49805 60.2844 7.30749C60.1835 7.10572 60.0434 6.95439 59.864 6.85351C59.6847 6.74141 59.4829 6.66294 59.2587 6.61811C59.0457 6.57327 58.8215 6.55085 58.5861 6.55085H56.333L55.5932 10.1491Z" fill="white"/>
<defs>
<clipPath id="clip0_969_20785">
<rect width="19.705" height="24" fill="white"/>
</clipPath>
</defs>
</svg>
