<svg width="60" height="58" viewBox="0 0 60 58" fill="none" xmlns="http://www.w3.org/2000/svg">
<path d="M58 28C58 31.677 57.2758 35.318 55.8686 38.7151C54.4615 42.1123 52.399 45.1989 49.799 47.799C47.1989 50.399 44.1123 52.4615 40.7151 53.8686C37.318 55.2758 33.677 56 30 56C26.323 56 22.682 55.2758 19.2849 53.8686C15.8877 52.4615 12.801 50.399 10.201 47.799C7.60097 45.1989 5.5385 42.1123 4.13137 38.7151C2.72424 35.318 2 31.677 2 28L30 28H58Z" fill="#09479A"/>
<path d="M58 28C58 31.677 57.2758 35.318 55.8686 38.7151C54.4615 42.1123 52.399 45.1989 49.799 47.799C47.1989 50.399 44.1123 52.4615 40.7151 53.8686C37.318 55.2758 33.677 56 30 56C26.323 56 22.682 55.2758 19.2849 53.8686C15.8877 52.4615 12.801 50.399 10.201 47.799C7.60097 45.1989 5.5385 42.1123 4.13137 38.7151C2.72424 35.318 2 31.677 2 28" stroke="#1E70C8" stroke-width="3"/>
<circle cx="30" cy="28" r="8" fill="#0A489C" stroke="#1E70C8" stroke-width="3"/>
<circle cx="30" cy="28" r="4" fill="#1E70C8"/>
</svg>
