<svg width="16" height="16" viewBox="0 0 16 16" fill="none" xmlns="http://www.w3.org/2000/svg">
<path d="M8 0C12.4184 0 16 3.58157 16 8C16 12.4184 12.4184 16 8 16C3.58157 16 0 12.4184 0 8C0 3.58157 3.58157 0 8 0ZM10.7597 11.2609C10.9068 10.8094 11.5962 6.30991 11.6814 5.4233C11.7071 5.15478 11.6223 4.97635 11.456 4.8967C11.255 4.8 10.9572 4.84835 10.6118 4.97287C10.1381 5.14365 4.08174 7.71513 3.73183 7.864C3.4 8.00487 3.08626 8.15861 3.08626 8.38122C3.08626 8.53774 3.17913 8.62574 3.43513 8.71722C3.70157 8.81217 4.37252 9.01565 4.7687 9.12487C5.15026 9.23026 5.5847 9.13878 5.82817 8.98748C6.08626 8.82713 9.0647 6.83409 9.27861 6.65948C9.49217 6.48487 9.66261 6.70852 9.488 6.88348C9.31339 7.05809 7.26887 9.04244 6.9993 9.31722C6.672 9.65078 6.90435 9.99652 7.12383 10.135C7.37461 10.2929 9.17809 11.5026 9.44974 11.6967C9.72139 11.8908 9.99687 11.9788 10.249 11.9788C10.5012 11.9788 10.6341 11.6466 10.7597 11.2609Z" fill="white"/>
</svg>
