<svg width="112" height="24" viewBox="0 0 112 24" fill="none" xmlns="http://www.w3.org/2000/svg">
<g clip-path="url(#clip0_969_10499)">
<rect width="112" height="24" fill="#FFDA5C"/>
<path fill-rule="evenodd" clip-rule="evenodd" d="M57.4643 -70.1025L43.6079 -78.1025L-56.3921 95.1025L-42.5357 103.103L57.4643 -70.1025ZM94.3208 -70.1025L80.4644 -78.1025L-19.5356 95.1025L-5.67924 103.103L94.3208 -70.1025ZM117.321 -78.1025L131.177 -70.1025L31.1772 103.103L17.3208 95.1025L117.321 -78.1025ZM168.034 -70.1025L154.177 -78.1025L54.1772 95.1025L68.0337 103.103L168.034 -70.1025Z" fill="#FFB82E"/>
<path fill-rule="evenodd" clip-rule="evenodd" d="M38.2315 5C37.672 5.01317 37.1103 5.01975 36.5508 5.00658C36.5683 5.3914 36.5644 5.77622 36.5605 6.16039V6.16044C36.5586 6.35235 36.5566 6.5441 36.5574 6.7356C36.867 6.72341 37.1766 6.72477 37.4862 6.72612C37.7339 6.7272 37.9816 6.72829 38.2293 6.72244C38.2304 6.58725 38.2319 6.45206 38.2334 6.3169L38.2334 6.31638C38.2383 5.87696 38.2433 5.43784 38.2315 5ZM33.6858 5.0222C34.2497 5.01123 34.8158 5.01123 35.3797 5.02C35.3841 5.26674 35.3813 5.51348 35.3786 5.7605C35.3759 6.00772 35.3731 6.25522 35.3775 6.50327C35.3797 6.58885 35.3665 6.67661 35.3424 6.75999C34.9867 6.74453 34.6311 6.75158 34.2748 6.75865H34.2748L34.2748 6.75865C34.075 6.76261 33.875 6.76657 33.6748 6.76657C33.7005 6.24499 33.6942 5.71984 33.6878 5.19594L33.6858 5.0222ZM31.6914 5.0343H31.6914H31.6914C31.972 5.0343 32.2529 5.0343 32.5337 5.0354C32.5713 5.11379 32.57 5.2007 32.5686 5.28706C32.5682 5.31673 32.5677 5.34633 32.5688 5.3755C32.5641 5.62362 32.5638 5.87239 32.5636 6.12144C32.5633 6.33489 32.5631 6.54856 32.5601 6.76222C32.2657 6.77672 31.9713 6.77365 31.6769 6.77058C31.392 6.7676 31.1072 6.76463 30.8223 6.77758C30.8339 6.52006 30.8322 6.26211 30.8306 6.0043C30.8285 5.68 30.8263 5.35592 30.8508 5.0332C31.1305 5.0343 31.4109 5.0343 31.6914 5.0343ZM28.0229 5.0598C28.2947 5.05455 28.5665 5.05483 28.8383 5.0551C29.1348 5.0554 29.4313 5.0557 29.7278 5.04883C29.73 5.06309 29.7338 5.08394 29.7377 5.10478C29.7415 5.12562 29.7454 5.14647 29.7476 5.16073C29.7576 6.85499 29.7453 8.54996 29.733 10.2448L29.733 10.2449C29.7238 11.5022 29.7146 12.7595 29.7146 14.0165C29.722 14.1414 29.7263 14.2666 29.7306 14.3918C29.7404 14.6754 29.7502 14.9592 29.7958 15.2408C29.9319 16.1536 30.3532 17.0225 30.9807 17.7005C31.068 17.8227 31.1813 17.9179 31.2945 18.0129C31.352 18.0612 31.4094 18.1095 31.4634 18.1613C32.3104 18.881 33.4228 19.2584 34.5309 19.2781C35.6346 19.254 36.7492 18.8854 37.5918 18.1591C38.5287 17.3911 39.1716 16.2589 39.3011 15.0499C39.3062 14.9622 39.3126 14.8746 39.3191 14.7869C39.3347 14.574 39.3503 14.361 39.3472 14.1481C39.3828 12.9301 39.3869 11.7107 39.391 10.4911V10.491V10.4909V10.4908V10.4906V10.4905C39.3922 10.135 39.3934 9.77954 39.3954 9.42403C39.4005 8.57416 39.4004 7.72428 39.4003 6.87484V6.87481V6.87479V6.87476V6.87473V6.87471C39.4003 6.268 39.4002 5.66151 39.402 5.05541C39.9725 5.0576 40.543 5.0576 41.1135 5.04883C41.1443 5.14307 41.1417 5.23998 41.1391 5.33748C41.1384 5.36484 41.1376 5.39224 41.1376 5.41965C41.1448 7.14371 41.133 8.86778 41.1211 10.5918C41.1113 12.0186 41.1015 13.4454 41.1025 14.8722C41.0455 15.5853 40.8875 16.2896 40.6242 16.9545C40.1875 17.9814 39.4942 18.8941 38.6209 19.5875C37.0652 20.8206 34.928 21.299 32.9994 20.8119C31.4766 20.4652 30.1096 19.5283 29.2034 18.2578C28.5627 17.356 28.1546 16.2853 28.0405 15.1816C27.9981 14.9344 28.0005 14.6843 28.0029 14.4338C28.0041 14.3086 28.0054 14.1832 28.001 14.0582C28.0062 13.1313 28.0068 12.2045 28.0073 11.2777C28.0076 10.6598 28.008 10.0419 28.0098 9.42403C28.0224 8.58641 28.0212 7.74805 28.02 6.91023C28.0191 6.29297 28.0183 5.67599 28.0229 5.0598ZM34.7765 7.87391C34.6948 7.86871 34.613 7.8635 34.5332 7.88307C34.5815 7.92914 34.6341 7.97522 34.6934 8.00375C34.9585 8.15536 35.2269 8.30098 35.4953 8.44659L35.4953 8.44659L35.4953 8.4466L35.4953 8.4466L35.4953 8.4466L35.4953 8.44661C35.9533 8.69505 36.4112 8.94346 36.8525 9.22152C37.1411 9.37393 37.4239 9.53794 37.7066 9.70185C37.8837 9.80458 38.0608 9.90728 38.2392 10.007C38.2417 9.76526 38.2423 9.52379 38.2429 9.28251V9.28232C38.2439 8.87991 38.245 8.47803 38.2546 8.07615C38.2589 8.00594 38.2502 7.94011 38.2304 7.87429C38.0072 7.87517 37.784 7.87622 37.5609 7.87728H37.5609H37.5608H37.5608H37.5607C36.67 7.88149 35.78 7.8857 34.8887 7.87868C34.8514 7.87868 34.814 7.87629 34.7765 7.87391ZM31.5647 7.91096H31.5647C31.7445 7.90717 31.924 7.90339 32.1032 7.90893C32.2756 7.89296 32.4155 7.98971 32.5534 8.08502C32.6049 8.12067 32.6562 8.15612 32.7088 8.18539C34.2707 9.12408 35.8472 10.0371 37.4243 10.9505L37.4244 10.9505L38.2228 11.413C38.2325 11.7779 38.2284 12.1433 38.2244 12.5088V12.5088V12.5088V12.5088C38.2202 12.8883 38.216 13.2678 38.2272 13.6467C38.1211 13.6071 38.0269 13.5471 37.9325 13.487C37.8492 13.4339 37.7658 13.3808 37.6742 13.3417C36.248 12.4948 34.8042 11.6763 33.3539 10.8711C32.9521 10.6461 32.5542 10.416 32.1563 10.1859L32.1563 10.1859L32.1563 10.1859L32.1562 10.1859C31.8131 9.98748 31.47 9.78912 31.1246 9.59406C31.0884 9.57095 31.0476 9.55352 31.0067 9.53608L31.0067 9.53608C30.9312 9.50382 30.8556 9.47151 30.8086 9.40317C30.8355 8.93313 30.8292 8.46114 30.8229 7.98719L30.8218 7.90234C31.0696 7.92141 31.3174 7.91618 31.5647 7.91096H31.5647H31.5647ZM31.2241 11.1086C31.0965 11.0283 30.9687 10.9478 30.8312 10.8867C30.8286 11.0853 30.8274 11.2842 30.8261 11.4832V11.4833V11.4833C30.8231 11.9662 30.82 12.45 30.7983 12.9317C30.7851 12.983 30.8292 13.0068 30.8696 13.0286C30.8828 13.0358 30.8956 13.0426 30.9058 13.0502C31.2405 13.2274 31.5666 13.4168 31.8933 13.6066L31.8934 13.6067L31.8934 13.6067C32.0036 13.6707 32.1139 13.7348 32.2245 13.7984C33.2199 14.3657 34.2081 14.9453 35.196 15.5247L35.196 15.5247L35.1961 15.5248C35.9352 15.9582 36.6742 16.3916 37.416 16.8198C37.5109 16.7467 37.5683 16.6438 37.6257 16.5408L37.6257 16.5408C37.6493 16.4986 37.6729 16.4563 37.699 16.4161C37.947 16.0255 38.1072 15.5867 38.2059 15.1369C38.1084 15.0497 37.993 14.9884 37.877 14.9268C37.8208 14.8969 37.7645 14.867 37.71 14.8341C36.8111 14.3174 35.9105 13.8024 35.0097 13.2872L35.0094 13.287L35.0087 13.2867C33.8211 12.6075 32.633 11.9281 31.4478 11.2444C31.3721 11.2017 31.2981 11.1551 31.2241 11.1086ZM34.436 16.4909L34.4362 16.491L34.4363 16.4911C35.0893 16.872 35.7422 17.2529 36.3935 17.6362C36.2333 17.8271 35.9854 17.9149 35.7506 17.9763C35.3052 18.1321 34.8269 18.1979 34.3573 18.1738C33.2931 18.1431 32.2443 17.6143 31.6014 16.7629C31.224 16.2934 30.9738 15.7207 30.8641 15.1283C30.8408 14.9811 30.8271 14.8325 30.8134 14.684C30.8026 14.567 30.7918 14.4501 30.7764 14.334C31.9894 15.0635 33.2128 15.7772 34.436 16.4909ZM47.3142 9.44767H44.8032L45.1171 7.96802H51.798L51.4841 9.44767H49.0853L47.7177 15.9716H45.9466L47.3142 9.44767ZM63.0935 9.27953H61.4905L61.782 7.96802H63.385L63.0935 9.27953ZM61.3112 10.1763H62.9142L61.6811 15.9716H60.0894L61.3112 10.1763ZM51.9475 10.1762H53.472L53.2926 10.9945H53.315C53.5542 10.6582 53.8456 10.4116 54.1894 10.2547C54.5331 10.0978 54.918 10.0193 55.344 10.0193C55.7027 10.0193 56.0091 10.0978 56.2631 10.2547C56.5172 10.4116 56.6779 10.6694 56.7451 11.0281C56.8423 10.8787 56.9656 10.7442 57.1151 10.6246C57.2645 10.4976 57.4252 10.3892 57.5971 10.2995C57.769 10.2098 57.9483 10.1426 58.1351 10.0978C58.3294 10.0454 58.52 10.0193 58.7068 10.0193C58.931 10.0193 59.1477 10.0492 59.357 10.109C59.5737 10.1687 59.7643 10.2584 59.9287 10.378C60.0931 10.4976 60.2238 10.6508 60.321 10.8376C60.4181 11.0244 60.4667 11.2411 60.4667 11.4877C60.4667 11.6671 60.448 11.8502 60.4107 12.037C60.3733 12.2163 60.3359 12.392 60.2986 12.5638L59.5812 15.9715H57.9894L58.7517 12.306C58.7815 12.1566 58.7965 12.0183 58.7965 11.8913C58.7965 11.7194 58.7292 11.5737 58.5947 11.4541C58.4677 11.3345 58.3033 11.2747 58.1015 11.2747C57.8923 11.2747 57.7017 11.3271 57.5298 11.4317C57.3654 11.5288 57.2197 11.6559 57.0926 11.8128C56.9731 11.9623 56.8722 12.1304 56.79 12.3172C56.7078 12.5041 56.648 12.6871 56.6106 12.8665L55.9605 15.9715H54.3575L55.1198 12.306C55.1497 12.1566 55.1646 12.0183 55.1646 11.8913C55.1646 11.7194 55.0973 11.5737 54.9628 11.4541C54.8358 11.3345 54.6714 11.2747 54.4696 11.2747C54.2604 11.2747 54.0698 11.3271 53.8979 11.4317C53.7335 11.5288 53.5878 11.6559 53.4608 11.8128C53.3412 11.9623 53.2403 12.1304 53.1581 12.3172C53.0759 12.5041 53.0161 12.6871 52.9787 12.8665L52.3286 15.9715H50.748L51.9475 10.1762ZM51.2374 10.1763H49.6344L48.4126 15.9716H50.0044L51.2374 10.1763ZM79.2304 17.4155C79.3723 17.2585 79.5106 17.0568 79.6451 16.8102L83.333 10.2078H81.6516L79.6451 14.3553H79.6227L79.1183 10.2078H77.4817L78.5129 15.947C78.4606 16.0143 78.4083 16.0927 78.356 16.1824C78.3112 16.2721 78.2514 16.3543 78.1767 16.429C78.1094 16.5112 78.0197 16.5785 77.9076 16.6308C77.7955 16.6906 77.6461 16.7205 77.4592 16.7205C77.3546 16.7205 77.25 16.7093 77.1454 16.6869C77.0333 16.6644 76.9249 16.6532 76.8203 16.6532L76.5513 17.9759C76.6933 17.9834 76.8352 17.9946 76.9772 18.0096C77.1192 18.0245 77.2575 18.032 77.392 18.032C77.6909 18.032 77.9487 18.0133 78.1654 17.9759C78.3896 17.946 78.5877 17.8863 78.7595 17.7966C78.9314 17.7069 79.0884 17.5799 79.2304 17.4155ZM72.1554 11.9678C72.2077 11.6017 72.3198 11.299 72.4916 11.0599C72.6635 10.8133 72.8728 10.6152 73.1194 10.4658C73.366 10.3163 73.6425 10.2117 73.9489 10.1519C74.2553 10.0847 74.5729 10.051 74.9017 10.051C75.1632 10.051 75.436 10.0697 75.72 10.1071C76.004 10.1444 76.2655 10.2192 76.5047 10.3313C76.7438 10.4359 76.9381 10.5891 77.0876 10.7909C77.2445 10.9851 77.3192 11.2467 77.3117 11.5755C77.3117 11.852 77.2706 12.1771 77.1884 12.5507L76.6728 14.8823C76.6429 14.9869 76.6205 15.1177 76.6055 15.2746C76.5981 15.4241 76.5943 15.5549 76.5943 15.667C76.5943 15.7641 76.613 15.8762 76.6504 16.0033H75.0586V15.4316C74.8419 15.6782 74.5766 15.8613 74.2627 15.9808C73.9489 16.0929 73.6238 16.149 73.2875 16.149C72.9737 16.149 72.6972 16.1079 72.458 16.0257C72.2263 15.9435 72.0321 15.8351 71.8751 15.7006C71.7182 15.5586 71.6024 15.398 71.5276 15.2186C71.4529 15.0318 71.4155 14.8375 71.4155 14.6357C71.4155 14.0752 71.6061 13.6269 71.9872 13.2906C72.3758 12.9543 72.9213 12.745 73.6238 12.6628C73.9975 12.618 74.3225 12.5844 74.599 12.562C74.8755 12.5395 75.1035 12.5059 75.2828 12.4611C75.4696 12.4088 75.6079 12.3378 75.6976 12.2481C75.7872 12.1509 75.8321 12.0089 75.8321 11.8221C75.8321 11.6727 75.7985 11.5531 75.7312 11.4634C75.6639 11.3737 75.578 11.3028 75.4734 11.2504C75.3762 11.1981 75.2679 11.1645 75.1483 11.1496C75.0362 11.1271 74.9278 11.1159 74.8232 11.1159C74.5393 11.1159 74.2852 11.1869 74.061 11.3289C73.8368 11.4634 73.6985 11.6764 73.6462 11.9678H72.1554ZM75.5182 13.2233C75.3164 13.3429 75.0997 13.4176 74.8681 13.4475C74.6364 13.4699 74.4047 13.4886 74.1731 13.5035C74.0236 13.5185 73.8779 13.5447 73.7359 13.582C73.5939 13.6119 73.4669 13.6605 73.3548 13.7277C73.2502 13.795 73.1642 13.8884 73.097 14.008C73.0297 14.1201 72.9961 14.2658 72.9961 14.4451C72.9961 14.6619 73.082 14.8263 73.2539 14.9384C73.4332 15.043 73.6388 15.0953 73.8704 15.0953C74.117 15.0953 74.3225 15.0579 74.4869 14.9832C74.6588 14.901 74.8008 14.8001 74.9129 14.6805C75.0325 14.5535 75.1259 14.4115 75.1931 14.2546C75.2604 14.0977 75.3164 13.9407 75.3613 13.7838L75.5182 13.2233ZM72.4153 7.99951H70.8235L69.1309 16.0031H70.7114L72.4153 7.99951ZM64.076 7.99951H67.2819C67.6855 7.99951 68.0554 8.04061 68.3917 8.12282C68.7354 8.19755 69.0306 8.32459 69.2772 8.50394C69.5238 8.68329 69.7144 8.92243 69.8489 9.22135C69.9909 9.52027 70.0619 9.89018 70.0619 10.3311C70.0619 10.772 69.976 11.1681 69.8041 11.5193C69.6397 11.863 69.4117 12.1545 69.1203 12.3936C68.8363 12.6328 68.5075 12.8159 68.1339 12.9429C67.7602 13.0699 67.3641 13.1335 66.9456 13.1335H64.771L64.1657 16.0031H62.417L64.076 7.99951ZM65.0624 11.7659H66.856C67.3044 11.7659 67.6556 11.6538 67.9097 11.4296C68.1712 11.198 68.302 10.843 68.302 10.3647C68.302 10.1629 68.2646 9.99854 68.1899 9.8715C68.1226 9.73698 68.0292 9.6361 67.9097 9.56884C67.7901 9.49411 67.6556 9.4418 67.5061 9.41191C67.3641 9.38202 67.2147 9.36707 67.0577 9.36707H65.5557L65.0624 11.7659Z" fill="#785C00"/>
</g>
<defs>
<clipPath id="clip0_969_10499">
<rect width="112" height="24" fill="white"/>
</clipPath>
</defs>
</svg>
