<svg width="53" height="53" viewBox="0 0 53 53" fill="none" xmlns="http://www.w3.org/2000/svg">
<g clip-path="url(#clip0_969_8817)">
<rect x="3.67432" y="-110" width="5.5" height="213.903" transform="rotate(30 3.67432 -110)" fill="#646464"/>
<rect x="13.6335" y="-104.25" width="5.5" height="213.903" transform="rotate(30 13.6335 -104.25)" fill="#646464"/>
<rect x="23.593" y="-98.5" width="5.5" height="213.903" transform="rotate(30 23.593 -98.5)" fill="#646464"/>
<rect x="33.5522" y="-92.75" width="5.5" height="213.903" transform="rotate(30 33.5522 -92.75)" fill="#646464"/>
<rect x="43.5115" y="-87" width="5.5" height="213.903" transform="rotate(30 43.5115 -87)" fill="#646464"/>
<rect x="53.4707" y="-81.25" width="5.5" height="213.903" transform="rotate(30 53.4707 -81.25)" fill="#646464"/>
<rect x="63.4302" y="-75.5" width="5.5" height="213.903" transform="rotate(30 63.4302 -75.5)" fill="#646464"/>
<rect x="73.3894" y="-69.75" width="5.5" height="213.903" transform="rotate(30 73.3894 -69.75)" fill="#646464"/>
<rect x="83.3486" y="-64" width="5.5" height="213.903" transform="rotate(30 83.3486 -64)" fill="#646464"/>
<rect x="93.3079" y="-58.25" width="5.5" height="213.903" transform="rotate(30 93.3079 -58.25)" fill="#646464"/>
<rect x="103.267" y="-52.5" width="5.5" height="213.903" transform="rotate(30 103.267 -52.5)" fill="#646464"/>
<rect x="113.227" y="-46.75" width="5.5" height="213.903" transform="rotate(30 113.227 -46.75)" fill="#646464"/>
<rect x="123.186" y="-41" width="5.5" height="213.903" transform="rotate(30 123.186 -41)" fill="#646464"/>
<rect x="133.145" y="-35.25" width="5.5" height="213.903" transform="rotate(30 133.145 -35.25)" fill="#646464"/>
<rect x="143.104" y="-29.5" width="5.5" height="213.903" transform="rotate(30 143.104 -29.5)" fill="#646464"/>
<rect x="153.064" y="-23.75" width="5.5" height="213.903" transform="rotate(30 153.064 -23.75)" fill="#646464"/>
</g>
<defs>
<clipPath id="clip0_969_8817">
<rect width="53" height="53" fill="white"/>
</clipPath>
</defs>
</svg>
