<svg width="20" height="29" viewBox="0 0 20 29" fill="none" xmlns="http://www.w3.org/2000/svg">
<path d="M4.2975 5.34943C5.73525 3.87795 6.39128 1.88533 7.0933 0C7.30176 1.56651 8.08042 3.06251 7.8597 4.67194C7.49796 6.79025 6.36982 8.65718 5.68927 10.6774C5.39497 11.4928 5.77204 12.3113 6.29625 12.9306C7.05038 13.1452 7.83824 13.1636 8.61383 13.2372C8.6966 12.293 8.42989 11.1403 9.28212 10.4628C9.89217 10.3739 10.5819 10.3831 10.8885 11.0207C11.0387 11.7503 11.0172 12.5045 11.0785 13.2463C11.8357 13.1666 12.6052 13.1452 13.3379 12.9337C14.0246 12.2991 14.2392 11.2966 13.9019 10.4291C13.1355 8.34756 11.9461 6.36413 11.753 4.11094C11.7806 2.72223 12.3753 1.41936 12.5378 0.0459837C13.108 1.43469 13.6076 2.86938 14.4139 4.14466C15.0178 5.12564 16.0264 5.83992 16.3912 6.96499C16.7468 8.17282 16.6794 9.4481 16.8602 10.6866C17.0472 9.5462 17.0534 8.38741 17.2097 7.24702C18.2397 8.5039 19.1563 9.90487 19.5579 11.4959C19.7725 12.995 19.4629 14.5094 19.5549 16.0176C19.6622 16.6123 19.0797 16.9404 18.6689 17.2377C17.6174 17.7865 16.4617 18.1605 15.309 18.418C13.8406 18.2862 12.8903 16.9925 11.9461 16.0023C10.9038 17.1396 11.054 18.7 11.1399 20.1194C9.99027 20.6773 8.9817 21.4621 7.97006 22.2315C7.93633 20.852 8.64755 19.5921 8.57397 18.2126C8.60463 17.3695 8.07735 16.6706 7.74014 15.941C6.91243 16.7993 6.18282 17.8416 5.02097 18.28C4.32815 18.6387 3.58935 18.2095 2.91799 18.0072C1.88489 17.7098 0.934561 17.1856 0.063938 16.5633C0.128315 15.3708 0.109921 14.1813 0.0179539 12.9919C-0.175177 10.8368 1.23192 9.05571 2.21597 7.27461C2.4091 7.89692 2.58997 8.5223 2.77697 9.14767C3.04981 7.81415 3.27359 6.34574 4.2975 5.34943Z" fill="#18BBE6"/>
<path d="M3.83144 19.2365C4.82162 19.0188 6.05398 18.9759 6.69775 19.9109C7.0227 20.6589 6.82344 21.4958 6.79892 22.2806C6.20113 22.2285 5.60028 22.1763 4.99942 22.1304C5.00862 21.7962 5.01475 21.4621 5.02395 21.1279C5.39488 21.0574 5.76582 20.9869 6.13982 20.9195C6.1061 20.5485 6.07544 20.1776 6.04479 19.8067C5.48379 19.7852 4.92585 19.7729 4.36485 19.7699C3.65977 20.7876 3.21219 22.5013 4.50587 23.2585C5.84552 23.6478 7.317 23.4424 8.49418 22.6852C10.2998 21.787 11.9246 20.0611 14.1072 20.3493C15.0361 20.2389 15.9803 20.9593 15.8945 21.9403C16.0416 23.1389 14.9809 23.9574 14.285 24.7821C14.564 24.0004 14.6928 23.1819 14.751 22.3603C13.9846 22.1518 13.2366 21.4682 12.4059 21.7686C10.3243 22.6423 8.69344 24.313 6.61192 25.1898C5.52364 25.4657 4.325 25.5056 3.25818 25.1316C2.55923 24.5338 1.76831 23.8164 1.81429 22.8109C1.56905 21.3057 2.55616 19.9231 3.83144 19.2365Z" fill="#18BBE6"/>
<path d="M7.14228 26.6303C8.84674 25.5911 10.4531 24.4016 12.0901 23.2612C12.5469 24.184 12.9362 25.1466 13.0221 26.1858C11.9736 27.0595 11.0877 28.111 10.0546 29C9.93808 28.9939 9.7051 28.9816 9.58861 28.9755C8.70879 28.2673 7.96692 27.3998 7.14228 26.6303Z" fill="#18BBE6"/>
</svg>
